<svg xmlns="http://www.w3.org/2000/svg" width="24" height="24" viewBox="0 0 24 24">
    <g fill="none" fill-rule="evenodd">
        <path fill="#979797" fill-rule="nonzero" d="M12.336 1.121l.096.057 1.324 1.044L15.506 2a.614.614 0 0 1 .589.278l.042.086.635 1.58 1.58.745a.632.632 0 0 1 .357.533l-.003.098-.242 1.682 1.06 1.415a.636.636 0 0 1 .054.628l-.055.096-1.039 1.334.222 1.762a.62.62 0 0 1-.275.591l-.086.042-1.568.636-.692 1.643a.644.644 0 0 1-.376.332l-.099.023 1.76 6.699a.543.543 0 0 1-.205.642.573.573 0 0 1-.573.08l-.096-.046-4.45-2.766-4.46 2.77a.659.659 0 0 1-.32.087.583.583 0 0 1-.365-.125.627.627 0 0 1-.225-.53l.017-.102 1.739-6.709a.603.603 0 0 1-.44-.281l-.038-.08-.632-1.579-1.632-.697a.632.632 0 0 1-.358-.533l.003-.099.217-1.741-1.035-1.405a.636.636 0 0 1-.054-.627l.056-.097L5.557 7.03l-.222-1.762a.62.62 0 0 1 .276-.59l.085-.043L7.265 4l.692-1.643a.628.628 0 0 1 .53-.36L8.587 2l1.67.244 1.455-1.067a.627.627 0 0 1 .625-.055zm1.475 14.14l-1.404 1.066a.58.58 0 0 1-.362.12.58.58 0 0 1-.361-.12l-1.323-1.045-.618.088-1.488 5.689 3.483-2.183a.595.595 0 0 1 .636-.002l3.486 2.184-1.513-5.692-.536-.106zM12.045 2.367l-1.224.924c-.165.1-.304.141-.44.114l-1.494-.188-.583 1.41a.598.598 0 0 1-.33.332l-1.402.588.186 1.525a.582.582 0 0 1-.118.455l-.912 1.224.918 1.233c.099.166.14.306.113.442l-.187 1.504 1.4.588c.151.06.272.182.331.332l.585 1.41 1.532-.188h.049c.144 0 .283.04.361.12l1.215.918 1.2-.923c.165-.1.304-.142.44-.114l1.518.188.584-1.41a.598.598 0 0 1 .33-.333l1.402-.588-.186-1.5a.582.582 0 0 1 .118-.455l.912-1.224-.918-1.233c-.099-.166-.14-.306-.113-.441l.187-1.53-1.4-.587a.598.598 0 0 1-.332-.332l-.584-1.411-1.49.187a.574.574 0 0 1-.452-.12l-1.216-.917z"/>
        <path fill="#939393" d="M11.302 10.175L9.318 8.41l-1.09 1.09 3.074 2.728 5.107-4.91-1.09-1.09z"/>
    </g>
</svg>
