<svg xmlns="http://www.w3.org/2000/svg" width="20" height="20" viewBox="0 0 20 20">
    <g fill="none" fill-rule="nonzero">
        <path fill="#FFDA44" d="M.622 13.478a10.004 10.004 0 0 0 18.756 0L10 12.608l-9.378.87z"/>
        <path fill="#000" d="M10 0C5.7 0 2.035 2.714.622 6.522l9.378.87 9.378-.87A10.004 10.004 0 0 0 10 0z"/>
        <path fill="#D80027" d="M.622 6.522A9.979 9.979 0 0 0 0 10c0 1.223.22 2.395.622 3.478h18.756A9.979 9.979 0 0 0 20 10c0-1.223-.22-2.395-.622-3.478H.622z"/>
    </g>
</svg>
