<svg xmlns="http://www.w3.org/2000/svg" width="20" height="20" viewBox="0 0 20 20">
    <g fill="none" fill-rule="nonzero">
        <circle cx="10" cy="10" r="10" fill="#D80027"/>
        <g fill="#F0F0F0">
            <path d="M11.032 7.565c-.227.945-.63.765-.829 1.59a2.174 2.174 0 0 1 1.016-4.228c-.396 1.649.017 1.793-.187 2.638zM8.003 8.266c.83.508.533.836 1.256 1.28a2.174 2.174 0 0 1-3.707-2.273c1.446.886 1.71.538 2.451.993zM7.734 11.363c.739-.631.96-.248 1.605-.798a2.174 2.174 0 0 1-3.307 2.822c1.29-1.1 1.04-1.46 1.702-2.024zM10.596 12.577c-.372-.899.06-.99-.264-1.773a2.174 2.174 0 0 1 1.663 4.017c-.648-1.567-1.067-1.44-1.4-2.244zM12.635 10.23c-.97.076-.923-.364-1.768-.298a2.174 2.174 0 0 1 4.334-.34c-1.69.133-1.7.57-2.566.638z"/>
        </g>
    </g>
</svg>
