<svg xmlns="http://www.w3.org/2000/svg" width="20" height="20" viewBox="0 0 20 20">
    <g fill="none" fill-rule="nonzero">
        <circle cx="10" cy="10" r="10" fill="#F0F0F0"/>
        <g fill="#D80027">
            <path d="M20 10A10 10 0 0 0 14.348.992v18.016A10 10 0 0 0 20 10zM0 10a10 10 0 0 0 5.652 9.008V.992A10 10 0 0 0 0 10zM11.74 11.304l1.738-.87-.87-.434v-.87L10.87 10l.87-1.74h-.87L10 6.958 9.13 8.26h-.87L9.13 10l-1.739-.87V10l-.87.435 1.74.87-.435.869h1.74v1.304h.869v-1.304h1.739z"/>
        </g>
    </g>
</svg>
