<svg xmlns="http://www.w3.org/2000/svg" width="20" height="20" viewBox="0 0 20 20">
    <g fill="none" fill-rule="nonzero">
        <circle cx="10" cy="10" r="10" fill="#338AF3"/>
        <g fill="#F0F0F0">
            <path d="M9.971 6.522a3.478 3.478 0 1 0 0 6.956 3.478 3.478 0 0 0 0-6.956zM9.101 10a.87.87 0 1 1 1.74 0 .87.87 0 0 1-1.74 0zm1.772-1.487a1.729 1.729 0 0 0-.438-.19v-.89c.392.07.754.228 1.064.453l-.626.627zm-1.308-.204a1.728 1.728 0 0 0-.459.182l-.629-.629a2.595 2.595 0 0 1 1.088-.44v.887zm-.459 3.2c.142.081.296.143.46.182v.886c-.401-.062-.77-.216-1.089-.44l.63-.628zm1.329.167c.156-.043.303-.107.438-.189l.626.627c-.31.225-.672.382-1.064.453v-.89zm1.045-.811c.076-.133.136-.278.175-.43h.888c-.065.389-.217.749-.434 1.06l-.63-.63zm.175-1.3c-.039-.152-.099-.296-.175-.43l.629-.63c.217.311.369.671.434 1.06h-.888zM7.857 8.472l.627.626a1.73 1.73 0 0 0-.197.467h-.888c.068-.403.228-.775.458-1.093zM7.4 10.435h.888c.043.166.11.323.197.467l-.627.626c-.23-.318-.39-.69-.458-1.093z"/>
            <path d="M15.623 10a5.634 5.634 0 0 0-1.627-3.967l-.922.922a4.348 4.348 0 1 1-6.177-.03l-.923-.922a5.655 5.655 0 0 0 2.453 9.436c-.26.494-.22 1.116.152 1.58L10 15.878c.429.343.934.748 1.421 1.14a1.447 1.447 0 0 0 .144-1.595A5.654 5.654 0 0 0 15.623 10z"/>
        </g>
    </g>
</svg>
