<svg xmlns="http://www.w3.org/2000/svg" width="20" height="20" viewBox="0 0 20 20">
    <g fill="none" fill-rule="nonzero">
        <path fill="#0052B4" d="M20 10.02C20 15.531 15.523 20 10 20S0 15.532 0 10.02c0 .002 10-9.98 10-9.981 5.523 0 10 4.468 10 9.98z"/>
        <g fill="#F0F0F0">
            <path d="M10.032.07h-.005.005zM9.983 10.07h.068v-.068l-.068.069zM10 5.246V.04h-.002C4.476.039 0 4.508 0 10.019h5.217V7.087l2.938 2.932h1.818c.01-.008.018-.017.027-.026V8.179L7.062 5.246H10z"/>
        </g>
        <g fill="#D80027">
            <path d="M5.06 1.34a10.038 10.038 0 0 0-3.756 3.748v4.931h2.609V3.944H10V1.341H5.06z"/>
            <path d="M10 8.792L6.447 5.246h-1.23L10 10.02V8.792z"/>
        </g>
        <g fill="#F0F0F0">
            <path d="M6.031 11.755l.549 1.146 1.24-.286-.556 1.142.997.789-1.241.279.003 1.27-.992-.795-.992.795.003-1.27-1.24-.28.996-.788-.555-1.142 1.24.286zM14.972 13.925l.274.573.62-.143-.277.57.498.395-.62.14.001.635-.496-.398-.496.398.002-.635-.62-.14.497-.394-.277-.571.62.143zM12.42 7.85l.274.573.62-.143-.278.57.498.395-.62.14.001.634-.496-.397-.496.397.002-.634-.62-.14.498-.394-.278-.571.62.143zM14.972 4.378l.274.573.62-.143-.277.571.498.395-.62.14.001.634-.496-.397-.496.397.002-.635-.62-.14.497-.394-.277-.57.62.142zM17.202 6.982l.274.573.62-.143-.278.57.499.395-.62.14.001.635-.496-.397-.496.397.001-.635-.62-.14.498-.394-.277-.571.62.143zM15.607 10.02l.216.662h.699l-.565.41.216.663-.566-.41-.565.41.216-.663-.565-.41h.699z"/>
        </g>
    </g>
</svg>
