<svg xmlns="http://www.w3.org/2000/svg" width="20" height="20" viewBox="0 0 20 20">
    <g fill="none" fill-rule="nonzero">
        <circle cx="10" cy="10" r="10" fill="#496E2D"/>
        <path fill="#F0F0F0" d="M11.74 9.583c-.246 0-.48.049-.696.127.119-.264.198-.558.198-.872C11.242 7.595 10 6.664 10 6.664s-1.242.931-1.242 2.174c0 .314.08.608.198.872a2.05 2.05 0 0 0-.695-.127c-1.242 0-2.174 1.242-2.174 1.242s.932 1.243 2.174 1.243c.728 0 1.35-.427 1.74-.78.389.353 1.01.78 1.738.78 1.242 0 2.174-1.243 2.174-1.243s-.932-1.242-2.174-1.242z"/>
        <g fill="#FFDA44">
            <path d="M10 3.913l.257.79h.83l-.672.488.257.79L10 5.492l-.672.489.257-.79-.672-.488h.83zM6.842 5.294l.494.445.575-.332-.27.606.494.445-.66-.07-.27.607-.14-.65-.66-.069.576-.332zM4.531 7.606l.65.138.332-.575.07.66.65.138-.608.27.07.661-.445-.493-.607.27.333-.576zM13.158 5.294l-.494.445-.575-.332.27.606-.494.445.66-.07.27.607.14-.65.66-.069-.576-.332zM15.469 7.606l-.65.138-.332-.575-.07.66-.649.138.607.27-.07.661.445-.493.607.27-.332-.576z"/>
        </g>
        <g fill="#F0F0F0">
            <path d="M10 15.546c.987 0 1.896-.33 2.626-.883H7.374c.73.554 1.64.883 2.626.883zM6.014 12.937c.138.316.313.612.519.883h6.934c.206-.271.38-.567.519-.883H6.014z"/>
        </g>
    </g>
</svg>
