<svg xmlns="http://www.w3.org/2000/svg" width="20" height="20" viewBox="0 0 20 20">
    <g fill="none" fill-rule="nonzero">
        <circle cx="10" cy="10" r="10" fill="#F0F0F0"/>
        <g fill="#338AF3">
            <path d="M10 0A10 10 0 0 0 .992 5.652h18.016A10 10 0 0 0 10 0zM10 20a10 10 0 0 0 9.008-5.652H.992A10 10 0 0 0 10 20z"/>
        </g>
        <path fill="#FFDA44" d="M12.989 10l-1.221.574.65 1.183-1.326-.253-.168 1.34-.924-.986-.924.985-.168-1.34-1.326.254.65-1.183L7.012 10l1.22-.574-.65-1.183 1.326.253.168-1.34.924.986.924-.985.168 1.34 1.326-.254-.65 1.183z"/>
    </g>
</svg>
