<svg xmlns="http://www.w3.org/2000/svg" width="20" height="20" viewBox="0 0 20 20">
    <g fill="none" fill-rule="nonzero">
        <circle cx="10" cy="10" r="10" fill="#F0F0F0"/>
        <path fill="#D80027" d="M0 10C0 4.477 4.477 0 10 0s10 4.477 10 10"/>
        <g fill="#F0F0F0">
            <path d="M6.087 5.217a3.044 3.044 0 0 1 2.391-2.972 3.043 3.043 0 1 0 0 5.945 3.044 3.044 0 0 1-2.391-2.973zM10 2.391l.216.665h.698l-.565.41.216.664L10 3.72l-.565.41.216-.664-.565-.41h.698z"/>
            <path d="M8.306 3.696l.215.664h.699l-.565.41.216.665-.565-.41-.565.41.215-.665-.565-.41h.699zM11.694 3.696l.216.664h.699l-.565.41.215.665-.565-.41-.565.41.216-.665-.565-.41h.699zM11.042 5.652l.216.664h.699l-.566.411.216.664-.565-.41-.565.41.216-.664-.565-.41h.698zM8.958 5.652l.216.664h.698l-.565.411.216.664-.565-.41-.565.41.216-.664-.566-.41h.699z"/>
        </g>
    </g>
</svg>
