<svg xmlns="http://www.w3.org/2000/svg" width="20" height="20" viewBox="0 0 20 20">
    <g fill="none" fill-rule="nonzero">
        <circle cx="10" cy="10" r="10" fill="#F0F0F0"/>
        <g fill="#D80027">
            <path d="M9.565 10H20c0-.903-.12-1.777-.344-2.609H9.566V10zM9.565 4.783h8.967a10.052 10.052 0 0 0-2.307-2.61h-6.66v2.61zM10 20a9.957 9.957 0 0 0 6.225-2.174H3.775A9.957 9.957 0 0 0 10 20zM1.468 15.217h17.064a9.941 9.941 0 0 0 1.124-2.608H.344a9.94 9.94 0 0 0 1.124 2.608z"/>
        </g>
        <path fill="#0052B4" d="M10 10V0C4.477 0 0 4.477 0 10h10z"/>
        <g fill="#FFDA44">
            <path d="M6.65 8.56A2.473 2.473 0 1 1 7.826 3.91a3.044 3.044 0 1 0 0 4.351c-.35.19-.75.298-1.176.298z"/>
            <path d="M7.347 4.348l.439.918.991-.23-.444.916.797.633-.992.223.002 1.018-.793-.637-.794.637.002-1.018-.992-.223.797-.633-.444-.915.992.229z"/>
        </g>
    </g>
</svg>
