<svg xmlns="http://www.w3.org/2000/svg" width="20" height="20" viewBox="0 0 20 20">
    <g fill="none" fill-rule="nonzero">
        <circle cx="10" cy="10" r="10" fill="#F0F0F0"/>
        <path fill="#338AF3" d="M10 7.391h9.656a9.944 9.944 0 0 0-1.124-2.608H10V7.39z"/>
        <g fill="#338AF3">
            <path d="M3.775 17.826h12.45a10.05 10.05 0 0 0 2.307-2.609H1.468a10.053 10.053 0 0 0 2.307 2.61zM10 0v2.174h6.225A9.957 9.957 0 0 0 10 0z"/>
        </g>
        <path fill="#338AF3" d="M10 7.391h9.656a9.944 9.944 0 0 0-1.124-2.608H10V7.39zM0 10c0 .903.12 1.777.344 2.609h19.312C19.88 11.777 20 10.903 20 10H0z"/>
        <path fill="#FFDA44" d="M8.696 5.852l-1.222.575.65 1.183L6.8 7.356l-.169 1.34-.923-.986-.924.986-.168-1.34-1.326.254.65-1.183-1.221-.575 1.221-.574-.65-1.183 1.326.254.168-1.34.924.985.924-.985.168 1.34 1.326-.254-.65 1.183z"/>
    </g>
</svg>
