<svg xmlns="http://www.w3.org/2000/svg" width="20" height="20" viewBox="0 0 20 20">
    <g fill="none" fill-rule="nonzero">
        <circle cx="10" cy="10" r="10" fill="#F0F0F0"/>
        <g fill="#D80027">
            <path d="M9.565 10H20c0-.903-.12-1.777-.344-2.609H9.566V10zM9.565 4.783h8.967a10.053 10.053 0 0 0-2.307-2.61h-6.66v2.61zM10 20a9.957 9.957 0 0 0 6.225-2.174H3.775A9.957 9.957 0 0 0 10 20zM1.468 15.217h17.064a9.94 9.94 0 0 0 1.124-2.608H.344a9.94 9.94 0 0 0 1.124 2.608z"/>
        </g>
        <path fill="#0052B4" d="M4.632 1.562h.911l-.847.615.324.997-.848-.616-.848.616.28-.86c-.746.62-1.4 1.35-1.94 2.16h.293l-.54.393c-.084.14-.165.282-.242.427l.258.793-.481-.35c-.12.254-.229.513-.327.777l.284.874h1.048l-.848.616.324.996-.848-.616-.508.37C.027 9.161 0 9.577 0 10h10V0a9.953 9.953 0 0 0-5.368 1.562zM5.02 9l-.848-.616L3.324 9l.324-.996-.847-.616h1.047l.324-.997.324.997h1.047l-.847.616L5.02 9zm-.324-3.91l.324.997-.848-.616-.848.616.324-.996-.847-.616h1.047l.324-.997.324.997h1.047l-.847.616zM8.606 9l-.847-.616L6.91 9l.324-.996-.848-.616h1.048l.324-.997.324.997H9.13l-.847.616.324.996zm-.323-3.91l.324.997-.848-.616-.848.616.324-.996-.848-.616h1.048l.324-.997.324.997H9.13l-.847.616zm0-2.913l.324.997-.848-.616-.848.616.324-.997-.848-.615h1.048L7.76.565l.324.997H9.13l-.847.615z"/>
    </g>
</svg>
