<svg xmlns="http://www.w3.org/2000/svg" width="20" height="20" viewBox="0 0 20 20">
    <g fill="none" fill-rule="nonzero">
        <path fill="#F0F0F0" d="M10 20c1.223 0 2.395-.22 3.478-.622L13.913 10 13.478.622A9.979 9.979 0 0 0 10 0C8.777 0 7.605.22 6.522.622L6.087 10l.435 9.378A9.978 9.978 0 0 0 10 20z"/>
        <path fill="#FF9811" d="M0 10c0 4.3 2.714 7.965 6.522 9.378V.622A10.004 10.004 0 0 0 0 10z"/>
        <path fill="#6DA544" d="M13.478.622v18.756a10.004 10.004 0 0 0 0-18.756z"/>
    </g>
</svg>
