<svg xmlns="http://www.w3.org/2000/svg" width="20" height="20" viewBox="0 0 20 20">
    <g fill="none" fill-rule="nonzero">
        <circle cx="10" cy="10" r="10" fill="#F0F0F0"/>
        <path fill="#D80027" d="M13.478 10c0 .87-1.557 3.043-3.478 3.043-1.921 0-3.478-2.173-3.478-3.043a3.478 3.478 0 1 1 6.956 0z"/>
        <path fill="#0052B4" d="M13.478 10a3.478 3.478 0 1 1-6.956 0"/>
        <path fill="#000" d="M13.69 13.074l.921-.922.615.615-.922.922zM12.152 14.612l.922-.923.615.615-.922.923zM15.534 14.919l.922-.923.615.615-.922.923zM13.997 16.456l.922-.922.615.615-.923.922zM14.612 13.997l.922-.923.615.615-.923.922zM13.075 15.534l.922-.922.615.614-.923.923zM15.534 6.925l-2.46-2.46.616-.614 2.46 2.46zM13.075 6.31l-.923-.921.615-.615.923.922zM14.612 7.848l-.923-.922.615-.615.923.922zM14.919 4.466l-.923-.922.615-.615.922.922zM16.456 6.003l-.922-.922.615-.615.922.923zM3.544 13.997l2.46 2.46-.616.614-2.459-2.46zM6.003 14.611l.922.923-.614.614-.923-.922zM4.466 13.074l.922.923-.615.615-.922-.923zM5.388 12.152l2.46 2.46-.615.614-2.46-2.46zM6.003 3.544l-2.46 2.46-.614-.616 2.46-2.46zM6.925 4.466l-2.46 2.46-.614-.616 2.46-2.459zM7.848 5.389l-2.46 2.459-.614-.615 2.46-2.46z"/>
    </g>
</svg>
