<svg xmlns="http://www.w3.org/2000/svg" width="20" height="20" viewBox="0 0 20 20">
    <g fill="none" fill-rule="nonzero">
        <circle cx="10" cy="10" r="10" fill="#F0F0F0"/>
        <g fill="#D80027">
            <path d="M.344 12.609a10.008 10.008 0 0 0 3.569 5.325v-5.325H.344zM9.13 19.962c.287.025.577.038.87.038 4.62 0 8.508-3.134 9.656-7.391H9.13v7.353zM19.656 7.391C18.508 3.134 14.62 0 10 0c-.293 0-.583.013-.87.038v7.353h10.526zM3.913 2.066A10.009 10.009 0 0 0 .344 7.391h3.569V2.066z"/>
        </g>
        <path fill="#0052B4" d="M19.915 8.696H7.826V.238c-.924.205-1.8.537-2.609.978v7.48H.085a10.086 10.086 0 0 0 0 2.608h5.132v7.48a9.932 9.932 0 0 0 2.61.978v-8.458h12.088a10.1 10.1 0 0 0 0-2.608z"/>
    </g>
</svg>
