<svg xmlns="http://www.w3.org/2000/svg" width="20" height="20" viewBox="0 0 20 20">
    <g fill="none" fill-rule="nonzero">
        <ellipse cx="10.019" cy="10" fill="#F0F0F0" rx="9.981" ry="10"/>
        <path fill="#000" d="M2.962 17.071c-3.897-3.905-3.897-10.237 0-14.142L8.718 10l-5.756 7.071z"/>
        <path fill="#FFDA44" d="M8.718 10L1.363 5.02c-.228.397-.43.812-.602 1.24L4.484 10 .761 13.74c.173.428.373.842.601 1.24L8.718 10z"/>
        <path fill="#6DA544" d="M19.916 8.696H8.717L2.962 2.929a10.037 10.037 0 0 0-1.6 2.091L6.324 10l-4.96 4.98c.44.766.979 1.47 1.6 2.09l5.754-5.766h11.199a10.118 10.118 0 0 0 0-2.608z"/>
        <path fill="#0052B4" d="M3.943 17.933A9.924 9.924 0 0 0 10.019 20c4.612 0 8.492-3.134 9.637-7.391h-10.4l-5.313 5.324z"/>
        <path fill="#D80027" d="M19.656 7.391C18.511 3.134 14.631 0 10.02 0a9.924 9.924 0 0 0-6.076 2.067l5.314 5.324h10.4z"/>
    </g>
</svg>
