<svg xmlns="http://www.w3.org/2000/svg" width="20" height="20" viewBox="0 0 20 20">
    <g fill="none" fill-rule="nonzero">
        <path fill="#0052B4" d="M20 10.02C20 15.531 15.523 20 10 20S0 15.532 0 10.02c0 .002 10-9.98 10-9.981 5.523 0 10 4.468 10 9.98z"/>
        <g fill="#F0F0F0">
            <path d="M10.032.07h-.005.005zM9.983 10.07h.068v-.068l-.068.069zM10 5.246V.04h-.002C4.476.039 0 4.508 0 10.019h5.217V7.087l2.938 2.932h1.818c.01-.008.018-.017.027-.026V8.178L7.062 5.246H10z"/>
        </g>
        <g fill="#D80027">
            <path d="M5.06 1.34a10.038 10.038 0 0 0-3.756 3.748v4.931h2.609V3.944H10V1.341H5.06z"/>
            <path d="M10 8.792L6.447 5.246h-1.23L10 10.02V8.792zM17.318 7.445l.215.663h.699l-.565.41.216.663-.565-.41-.566.41.216-.663-.565-.41h.699zM14.82 12.218l.325.995h1.047l-.847.614.323.995-.847-.615-.848.615.324-.995-.848-.614h1.048zM14.915 4.407l.27.83h.873l-.706.511.27.829-.707-.512-.706.512.27-.829-.707-.512h.873zM12.513 7.416l.323.994h1.048l-.848.615.324.994-.847-.614-.848.614.324-.994-.848-.615h1.048z"/>
        </g>
    </g>
</svg>
