<svg xmlns="http://www.w3.org/2000/svg" width="24" height="24" viewBox="0 0 24 24">
    <path fill="#939393" fill-rule="evenodd" d="M5.03 8.268c.256-.334.63-.721 1.07-1.084.835-.689 1.68-1.086 2.525-1.168.943-.092 1.824.215 2.628.923.166.157.496.245 1.238.38l.087.016c2.111.381 2.907.828 3.476 1.998.463.954 1.086 1.528 2.43 2.299l.115.066.115.065c1.558.886 1.993 1.313 2.246 2.208l.04.144-.035.146c-.11.462-.457.856-1.06 1.144-.995.474-2.458.541-3.265.163-2.893-1.358-5.165-.607-6.623 2.432l-1.055-.499c1.698-3.54 4.68-4.625 8.18-2.98.45.213 1.428.16 2.084-.089l.752-.285-.588-.548a3.976 3.976 0 0 0-.605-.447c-.16-.1-.294-.179-.652-.383-1.818-1.033-2.526-1.685-3.132-2.932-.364-.75-.997-1.062-2.46-1.33l-.086-.016-.086-.015c-1.186-.214-1.548-.345-1.906-.682-.543-.478-1.109-.685-1.725-.624a2.517 2.517 0 0 0-.595.137l-1.083.385 1.02.53c.117.061.221.133.312.215.247.224.38.526.366.79l-.005.108-.03.087-.015.015c-.593 1.323-1.601 2.693-2.973 4.074a20.106 20.106 0 0 1-2.027 1.803L3 14.39c.113-.085.314-.248.527-.428.413-.35.827-.728 1.229-1.124C5.774 11.832 6.592 10.83 7.17 9.86l.442-.74-.862-.016a7.555 7.555 0 0 0-1.17.088l-1.406.199.857-1.124z"/>
</svg>
