<svg xmlns="http://www.w3.org/2000/svg" width="24" height="24" viewBox="0 0 24 24">
    <g fill="#939393" fill-rule="evenodd">
        <path fill-rule="nonzero" d="M19.57 14.5l.085.477-.082.116-6.424 1.066.027.309c.01.114.015.225.015.334 0 2.492-2.1 4.518-4.681 4.518s-4.681-2.026-4.681-4.518c0-.824.233-1.616.656-2.302H5.92a3.46 3.46 0 0 0-.908 2.338 3.481 3.481 0 0 0 3.475 3.475 3.48 3.48 0 0 0 3.474-3.475 3.46 3.46 0 0 0-.907-2.338h1.482c.044.072.087.146.127.221l.114.211 2.6-.432h4.194zM8.847 8.411l3.102 2.089H9.58l-.588-.384-.188.257-.092.127-1.54.002a19.641 19.641 0 0 1 1.543-2.073l.13-.018zM12.924 4c1.478 0 2.682 1.15 2.682 2.574S14.401 9.15 12.924 9.15c-1.477 0-2.682-1.152-2.682-2.576C10.242 5.151 11.447 4 12.924 4zm0 1.094c-.874 0-1.58.667-1.58 1.48 0 .815.707 1.482 1.58 1.482.874 0 1.58-.667 1.58-1.481 0-.815-.706-1.481-1.58-1.481z"/>
        <path d="M0 12h24v1H0z"/>
    </g>
</svg>
