<svg xmlns="http://www.w3.org/2000/svg" width="24" height="24" viewBox="0 0 24 24">
    <path fill="#939393" fill-rule="evenodd" d="M8.847 7.874l3.831 2.58h6.459l.1.1v1.07l-.1.1-6.885-.015-3.26-2.13-.187.257c-.187.257-.32.447-.475.678a13.644 13.644 0 0 0-.466.746l-.309.545.625-.046c.11-.008.22-.012.33-.012 1.746 0 3.346.941 4.152 2.437l.114.211 6.576-1.091.115.08.188 1.056-.082.116-6.424 1.066.027.308c.01.115.015.226.015.335 0 2.492-2.1 4.518-4.681 4.518s-4.681-2.026-4.681-4.518c0-1.534.807-2.957 2.147-3.792l.116-.034.036-.187c.076-.394.246-.847.51-1.363.204-.397.46-.824.768-1.279a19.641 19.641 0 0 1 1.31-1.719l.13-.017zm-.36 4.953A3.48 3.48 0 0 0 5.01 16.3a3.481 3.481 0 0 0 3.475 3.475A3.48 3.48 0 0 0 11.96 16.3a3.479 3.479 0 0 0-3.474-3.474zm4.437-9.364c1.478 0 2.682 1.15 2.682 2.574s-1.205 2.575-2.682 2.575c-1.477 0-2.682-1.15-2.682-2.575 0-1.423 1.205-2.574 2.682-2.574zm0 1.094c-.874 0-1.58.666-1.58 1.48s.707 1.481 1.58 1.481c.874 0 1.58-.666 1.58-1.48 0-.815-.706-1.481-1.58-1.481z"/>
</svg>
