<svg xmlns="http://www.w3.org/2000/svg" width="24" height="24" viewBox="0 0 24 24">
    <path fill="#939393" fill-rule="evenodd" d="M10.936 14.5h1.286c-1.3 1.936-2.38 4.535-2.609 6.542l-.03.329-1.115-.44c.204-1.781.914-3.728 2.077-5.771.122-.215.254-.438.39-.66h1.287zm2.818-.001l2.913.001L16 15l1.5 1.5 1.5-1-.5-1h.99c.072.167.147.336.228.51l.126.267.156.324-.218.285c-1.05 1.373-1.779 1.767-2.307 1.509a1.191 1.191 0 0 1-.11-.064c-.207-.154-1.141-.871-1.828-1.408a94.59 94.59 0 0 1-1.783-1.424zM24 12v1H0v-1h24zm-7.898-8l.257.92c.185.674.29 1.475.28 2.313l-.012.362-.014.277.227.159c.765.533 1.122 1.088 1.49 2.468l-1.186.001c-.287-.965-.586-1.34-1.254-1.709l-.15-.079-.362-.187.055-.409c.03-.225.05-.457.057-.694l.002-.36-.014-.896-.755.483c-.794.508-1.707.943-3.026 1.45-.24.091-.426.161-.901.338-1.54.57-2.994 1.28-4.236 2.063H4.666c1.597-1.223 3.743-2.41 5.738-3.151 2.702-1.002 3.774-1.551 4.875-2.567l.138-.13.685-.652z"/>
</svg>
