<svg xmlns="http://www.w3.org/2000/svg" width="24" height="24" viewBox="0 0 24 24">
    <g fill="#939393" fill-rule="evenodd">
        <path fill-rule="nonzero" d="M16.885 10.5h-1.514a6.161 6.161 0 0 1-.37-.663c-.364-.75-.997-1.062-2.46-1.33l-.086-.016-.086-.015c-1.186-.214-1.548-.345-1.906-.682-.543-.478-1.109-.685-1.725-.624a2.517 2.517 0 0 0-.595.137l-1.083.385 1.02.53c.117.061.221.133.312.215.247.224.38.526.366.79l-.005.108-.03.087-.015.015a9.983 9.983 0 0 1-.56 1.063h-1.39c.149-.214.286-.428.412-.64l.442-.739-.862-.016a7.555 7.555 0 0 0-1.17.088l-1.406.199.857-1.124c.255-.334.63-.721 1.069-1.084.835-.689 1.68-1.086 2.525-1.168.943-.092 1.824.215 2.628.923.166.157.496.245 1.238.38l.087.016c2.111.381 2.907.828 3.476 1.998.22.455.477.823.831 1.167zm3.999 4c-.16.36-.482.668-.98.905-.994.474-2.457.541-3.264.163-2.893-1.358-5.165-.607-6.623 2.432l-1.055-.499c.66-1.377 1.516-2.383 2.52-3.001h5.614l.046.021c.406.192 1.24.168 1.882-.021h1.86zm-16.192 0c-.35.31-.681.584-.984.814l-.624-.814h1.608z"/>
        <path d="M0 12h24v1H0z"/>
    </g>
</svg>
