<svg xmlns="http://www.w3.org/2000/svg" width="24" height="24" viewBox="0 0 24 24">
    <path fill="#939393" fill-rule="evenodd" d="M6.56 10.5H4.666c1.597-1.223 3.743-2.41 5.738-3.151 2.814-1.044 3.86-1.596 5.013-2.696L16.102 4l.257.92c.211.77.318 1.706.268 2.675l-.014.277.227.159c.765.533 1.122 1.089 1.49 2.469h-1.186c-.308-1.034-.629-1.39-1.403-1.788l-.363-.187.055-.409a7.02 7.02 0 0 0 .06-1.054l-.015-.896-.755.483c-.794.508-1.707.943-3.026 1.45-.24.091-.426.161-.901.338-1.539.57-2.993 1.28-4.236 2.063zm4.376 4h1.286c-1.373 2.043-2.5 4.826-2.639 6.87l-1.115-.439c.204-1.781.914-3.728 2.077-5.771.122-.215.254-.438.39-.66zm2.82 0h2.91L16 15l1.5 1.5 1.5-1-.5-1h.99c.107.25.223.505.354.777L20 15.6l-.218.285c-1.05 1.373-1.779 1.767-2.307 1.509a1.191 1.191 0 0 1-.11-.064c-.207-.154-1.141-.871-1.828-1.408a94.639 94.639 0 0 1-1.782-1.423zM0 12h24v1H0v-1z"/>
</svg>
