<svg xmlns="http://www.w3.org/2000/svg" width="24" height="24" viewBox="0 0 24 24">
    <path fill="#939393" fill-rule="evenodd" d="M3.199 13.55c1.2-1.906 4.192-3.85 7.597-5.113.475-.177.661-.247.901-.339 1.32-.506 2.232-.941 3.026-1.449l.755-.483.014.896a7.02 7.02 0 0 1-.06 1.054l-.054.41.363.186c.995.511 1.241.954 1.673 2.854.05.221.094.406.135.577l.084.346-2.529 1.624-.28-.227c-.826-.669-1.392-1.156-1.652-1.428l-.414-.436-.41.44c-.32.343-1.193 1.624-1.803 2.698-1.163 2.043-1.873 3.99-2.077 5.771l1.115.44c.147-2.171 1.408-5.173 2.895-7.24l.317-.44.413.352c.572.487 1.36 1.122 2.33 1.88.686.537 1.62 1.254 1.826 1.408.069.042.087.052.11.064.53.258 1.257-.136 2.308-1.509l.218-.285-.156-.324c-.613-1.272-.908-2.18-1.316-3.97-.454-1.992-.79-2.65-1.688-3.276l-.227-.159.014-.277a8.638 8.638 0 0 0-.268-2.676L16.102 4l-.685.653c-1.152 1.1-2.199 1.652-5.013 2.696-2.83 1.05-5.962 3-7.404 4.674l.199 1.527zM19 15.5l-1.5 1L16 15l2-1.5 1 2z"/>
</svg>
