<?xml version="1.0" encoding="UTF-8"?>
<svg width="29px" height="31px" viewBox="0 0 29 31" version="1.1" xmlns="http://www.w3.org/2000/svg" xmlns:xlink="http://www.w3.org/1999/xlink">
    <!-- Generator: Sketch 56.3 (81716) - https://sketch.com -->
    <title>Shape</title>
    <desc>Created with Sketch.</desc>
    <g id="Symbols" stroke="none" stroke-width="1" fill="none" fill-rule="evenodd">
        <g id="Components/Top-Nav" transform="translate(-853.000000, -8.000000)" fill="#008DFF" fill-rule="nonzero" stroke="#2B2C2E" stroke-width="0.5">
            <path d="M872.666667,30.3997206 L872.666667,25.1353161 L876.6,23.5003952 L876.6,28.764741 L872.666667,30.3997206 Z M876.6,29.9079025 L876.6,35.1789762 L872.666667,36.7992078 L872.666667,31.5428126 L876.6,29.9079025 Z M862.82322,11.0265853 L866.293683,12.4635892 L863.152558,13.764311 L859.680531,12.3211345 L862.82322,11.0265853 Z M867.674003,13.0351219 L870.816781,14.336447 L867.672504,15.6430851 L864.530178,14.3369329 L867.674003,13.0351219 Z M875.741112,12.2901116 L872.194445,13.7639372 L869.054131,12.4636212 L872.59948,10.9955943 L875.741112,12.2901116 Z M880.623269,14.3003088 L877.050327,15.7745669 L873.57274,14.3346316 L877.124481,12.8585206 L880.623269,14.3003088 Z M872.495857,17.6480068 L869.048339,16.2149809 L872.195109,14.9071681 L875.663754,16.3434512 L872.495857,17.6480068 Z M871.114475,18.2168697 L867.75,19.6023733 L864.308825,18.1847147 L867.673251,16.7864655 L871.114475,18.2168697 Z M862.833333,18.7190519 L862.833333,23.992224 L858.9,22.3572445 L858.9,17.0986334 L862.833333,18.7190519 Z M863.816667,19.1241498 L867.258333,20.542022 L867.258333,25.831544 L863.816667,24.4009635 L863.816667,19.1241498 Z M867.258333,26.9746093 L867.258333,32.2390352 L863.816667,30.8084548 L863.816667,25.5440289 L867.258333,26.9746093 Z M868.241667,20.5420167 L871.683333,19.1247319 L871.683333,24.4009582 L868.241667,25.8315386 L868.241667,20.5420167 Z M872.666667,18.7197994 L876.6,17.1000323 L876.6,22.3572445 L872.666667,23.992224 L872.666667,18.7197994 Z M877.583333,16.696862 L881.516667,15.0741635 L881.516667,20.3135948 L877.583333,21.9485743 L877.583333,16.696862 Z M866.297327,16.214559 L862.926573,17.6152858 L859.761675,16.3114511 L863.152538,14.9073657 L866.297327,16.214559 Z M855.840919,15.8384016 L857.916667,16.6935514 L857.916667,21.9485583 L853.983333,20.3135788 L853.983333,15.073181 L855.840919,15.8384016 Z M853.983333,21.4566281 L857.916667,23.0916076 L857.916667,28.3560656 L853.983333,26.721086 L853.983333,21.4566281 Z M858.9,23.5003258 L862.833333,25.1353054 L862.833333,30.3997206 L858.9,28.764741 L858.9,23.5003258 Z M862.833333,31.5428019 L862.833333,36.7992078 L858.9,35.1789655 L858.9,29.9078224 L862.833333,31.5428019 Z M863.816667,31.9515468 L867.258333,33.3821272 L867.258333,38.6220444 L863.816667,37.2043057 L863.816667,31.9515468 Z M868.241667,26.9746627 L871.683333,25.5440823 L871.683333,30.8084761 L868.241667,32.2390565 L868.241667,26.9746627 Z M877.583333,23.0916717 L881.516667,21.4567509 L881.516667,26.7211127 L877.583333,28.3560923 L877.583333,23.0916717 Z M867.749759,8.99726169 L871.215704,10.4254179 L867.673792,11.8920832 L864.206991,10.4565851 L867.749759,8.99726169 Z M858.297359,12.8892178 L861.774977,14.3347544 L858.377993,15.7414455 L854.87736,14.2992836 L858.297359,12.8892178 Z M853.983333,27.8641247 L857.916667,29.4991042 L857.916667,34.7739049 L853.983333,33.1536466 L853.983333,27.8641247 Z M868.241667,33.3821379 L871.683333,31.9515575 L871.683333,37.2042844 L868.241667,38.6220231 L868.241667,33.3821379 Z M877.583333,34.7739049 L877.583333,29.4991469 L881.516667,27.8642261 L881.516667,33.1536519 L877.583333,34.7739049 Z" id="Shape"></path>
        </g>
    </g>
</svg>